{
    "accessors": {
        "accessor_21": {
            "bufferView": "bufferView_29",
            "byteOffset": 0,
            "byteStride": 0,
            "componentType": 5123,
            "count": 540,
            "type": "SCALAR"
        },
        "accessor_23": {
            "bufferView": "bufferView_30",
            "byteOffset": 0,
            "byteStride": 12,
            "componentType": 5126,
            "count": 540,
            "max": [
                1.94068,
                3.68823,
                1.10981
            ],
            "min": [
                -2.07306,
                0,
                -1.10981
            ],
            "type": "VEC3"
        },
        "accessor_25": {
            "bufferView": "bufferView_30",
            "byteOffset": 6480,
            "byteStride": 12,
            "componentType": 5126,
            "count": 540,
            "max": [
                0.999969,
                0.956747,
                0.997792
            ],
            "min": [
                -1,
                -1,
                -0.997792
            ],
            "type": "VEC3"
        },
        "accessor_27": {
            "bufferView": "bufferView_30",
            "byteOffset": 12960,
            "byteStride": 8,
            "componentType": 5126,
            "count": 540,
            "max": [
                0.947273,
                0.998008
            ],
            "min": [
                0.00189096,
                0.00199199
            ],
            "type": "VEC2"
        }
    },
    "animations": {},
    "asset": {
        "generator": "collada2gltf@bbe133925a39976f0172929f3838e16326b737c1",
        "premultipliedAlpha": true,
        "profile": {
            "api": "WebGL",
            "version": "1.0.2"
        },
        "version": "1.0"
    },
    "bufferViews": {
        "bufferView_29": {
            "buffer": "teapot",
            "byteLength": 1080,
            "byteOffset": 0,
            "target": 34963
        },
        "bufferView_30": {
            "buffer": "teapot",
            "byteLength": 17280,
            "byteOffset": 1080,
            "target": 34962
        }
    },
    "buffers": {
        "teapot": {
            "byteLength": 18360,
            "type": "arraybuffer",
            "uri": "teapot.bin"
        }
    },
    "images": {
        "wood_jpg": {
            "name": "wood_jpg",
            "uri": "wood.jpg"
        }
    },
    "materials": {
        "initialShadingGroup-effect": {
            "name": "initialShadingGroup",
            "technique": "technique1",
            "values": {
                "ambient": [
                    0,
                    0,
                    0,
                    1
                ],
                "diffuse": "texture_wood_jpg",
                "emission": [
                    0,
                    0,
                    0,
                    1
                ],
                "shininess": 50,
                "specular": [
                    0.5,
                    0.5,
                    0.5,
                    1
                ]
            }
        }
    },
    "meshes": {
        "teapot_top_top-mesh": {
            "name": "teapot_top_top",
            "primitives": [
                {
                    "attributes": {
                        "NORMAL": "accessor_25",
                        "POSITION": "accessor_23",
                        "TEXCOORD_0": "accessor_27"
                    },
                    "indices": "accessor_21",
                    "material": "initialShadingGroup-effect",
                    "mode": 4
                }
            ]
        }
    },
    "nodes": {
        "node_1": {
            "children": [
                "teapot_top_top"
            ],
            "matrix": [
                1,
                0,
                0,
                0,
                0,
                0,
                -1,
                0,
                0,
                1,
                0,
                0,
                0,
                0,
                0,
                1
            ],
            "name": "Y_UP_Transform"
        },
        "teapot_top_top": {
            "children": [],
            "matrix": [
                1,
                0,
                0,
                0,
                0,
                -1.62921e-07,
                1,
                0,
                0,
                -1,
                -1.62921e-07,
                0,
                0,
                0,
                0,
                1
            ],
            "meshes": [
                "teapot_top_top-mesh"
            ],
            "name": "teapot_top_top"
        }
    },
    "programs": {
        "program_0": {
            "attributes": [
                "a_normal",
                "a_position",
                "a_texcoord0"
            ],
            "fragmentShader": "teapot0FS",
            "vertexShader": "teapot0VS"
        }
    },
    "samplers": {
        "sampler_0": {
            "magFilter": 9729,
            "minFilter": 9729,
            "wrapS": 10497,
            "wrapT": 10497
        }
    },
    "scene": "defaultScene",
    "scenes": {
        "defaultScene": {
            "nodes": [
                "node_1"
            ]
        }
    },
    "shaders": {
        "teapot0FS": {
            "type": 35632,
            "uri": "teapot0FS.glsl"
        },
        "teapot0VS": {
            "type": 35633,
            "uri": "teapot0VS.glsl"
        }
    },
    "skins": {},
    "techniques": {
        "technique1": {
            "attributes": {
                "a_normal": "normal",
                "a_position": "position",
                "a_texcoord0": "texcoord0"
            },
            "parameters": {
                "ambient": {
                    "type": 35666
                },
                "diffuse": {
                    "type": 35678
                },
                "emission": {
                    "type": 35666
                },
                "modelViewMatrix": {
                    "semantic": "MODELVIEW",
                    "type": 35676
                },
                "normal": {
                    "semantic": "NORMAL",
                    "type": 35665
                },
                "normalMatrix": {
                    "semantic": "MODELVIEWINVERSETRANSPOSE",
                    "type": 35675
                },
                "position": {
                    "semantic": "POSITION",
                    "type": 35665
                },
                "projectionMatrix": {
                    "semantic": "PROJECTION",
                    "type": 35676
                },
                "shininess": {
                    "type": 5126
                },
                "specular": {
                    "type": 35666
                },
                "texcoord0": {
                    "semantic": "TEXCOORD_0",
                    "type": 35664
                }
            },
            "program": "program_0",
            "states": {
                "enable": [
                    2929,
                    2884
                ]
            },
            "uniforms": {
                "u_ambient": "ambient",
                "u_diffuse": "diffuse",
                "u_emission": "emission",
                "u_modelViewMatrix": "modelViewMatrix",
                "u_normalMatrix": "normalMatrix",
                "u_projectionMatrix": "projectionMatrix",
                "u_shininess": "shininess",
                "u_specular": "specular"
            }
        }
    },
    "textures": {
        "texture_wood_jpg": {
            "format": 6408,
            "internalFormat": 6408,
            "sampler": "sampler_0",
            "source": "wood_jpg",
            "target": 3553,
            "type": 5121
        }
    }
}