{
    "accessors": {
        "accessor_16": {
            "bufferView": "bufferView_70",
            "byteOffset": 0,
            "byteStride": 0,
            "componentType": 5123,
            "count": 36,
            "type": "SCALAR"
        },
        "accessor_18": {
            "bufferView": "bufferView_71",
            "byteOffset": 0,
            "byteStride": 12,
            "componentType": 5126,
            "count": 24,
            "max": [
                0.5,
                0.5,
                0.5
            ],
            "min": [
                -0.5,
                -0.5,
                -0.5
            ],
            "type": "VEC3"
        },
        "accessor_20": {
            "bufferView": "bufferView_71",
            "byteOffset": 288,
            "byteStride": 12,
            "componentType": 5126,
            "count": 24,
            "max": [
                1,
                1,
                1
            ],
            "min": [
                -1,
                -1,
                -1
            ],
            "type": "VEC3"
        },
        "accessor_36": {
            "bufferView": "bufferView_70",
            "byteOffset": 108,
            "byteStride": 0,
            "componentType": 5123,
            "count": 2280,
            "type": "SCALAR"
        },
        "accessor_38": {
            "bufferView": "bufferView_71",
            "byteOffset": 960,
            "byteStride": 12,
            "componentType": 5126,
            "count": 382,
            "max": [
                1,
                1,
                1
            ],
            "min": [
                -1,
                -1,
                -1
            ],
            "type": "VEC3"
        },
        "accessor_40": {
            "bufferView": "bufferView_71",
            "byteOffset": 5544,
            "byteStride": 12,
            "componentType": 5126,
            "count": 382,
            "max": [
                1,
                1,
                1
            ],
            "min": [
                -1,
                -1,
                -1
            ],
            "type": "VEC3"
        },
        "accessor_56": {
            "bufferView": "bufferView_70",
            "byteOffset": 72,
            "byteStride": 0,
            "componentType": 5123,
            "count": 18,
            "type": "SCALAR"
        },
        "accessor_58": {
            "bufferView": "bufferView_71",
            "byteOffset": 576,
            "byteStride": 12,
            "componentType": 5126,
            "count": 16,
            "max": [
                0.707107,
                0.353553,
                0.707107
            ],
            "min": [
                -0.707107,
                -0.353553,
                -0.707107
            ],
            "type": "VEC3"
        },
        "accessor_60": {
            "bufferView": "bufferView_71",
            "byteOffset": 768,
            "byteStride": 12,
            "componentType": 5126,
            "count": 16,
            "max": [
                0.57735,
                0.57735,
                0.57735
            ],
            "min": [
                -0.57735,
                -1,
                -0.57735
            ],
            "type": "VEC3"
        },
        "animAccessor_0": {
            "bufferView": "bufferView_69",
            "byteOffset": 0,
            "componentType": 5126,
            "count": 2,
            "type": "SCALAR"
        },
        "animAccessor_1": {
            "bufferView": "bufferView_69",
            "byteOffset": 8,
            "componentType": 5126,
            "count": 2,
            "type": "VEC4"
        },
        "animAccessor_2": {
            "bufferView": "bufferView_69",
            "byteOffset": 40,
            "componentType": 5126,
            "count": 2,
            "type": "VEC4"
        }
    },
    "animations": {
        "animation_0": {
            "channels": [
                {
                    "sampler": "animation_0_rotation_sampler",
                    "target": {
                        "id": "_pCube1",
                        "path": "rotation"
                    }
                }
            ],
            "parameters": {
                "TIME": "animAccessor_0",
                "rotation": "animAccessor_1"
            },
            "samplers": {
                "animation_0_rotation_sampler": {
                    "input": "TIME",
                    "interpolation": "LINEAR",
                    "output": "rotation"
                }
            }
        },
        "animation_1": {
            "channels": [
                {
                    "sampler": "animation_1_rotation_sampler",
                    "target": {
                        "id": "_pCube1_pSphere1",
                        "path": "rotation"
                    }
                }
            ],
            "parameters": {
                "TIME": "animAccessor_0",
                "rotation": "animAccessor_2"
            },
            "samplers": {
                "animation_1_rotation_sampler": {
                    "input": "TIME",
                    "interpolation": "LINEAR",
                    "output": "rotation"
                }
            }
        }
    },
    "asset": {
        "generator": "collada2gltf@bbe133925a39976f0172929f3838e16326b737c1",
        "premultipliedAlpha": true,
        "profile": {
            "api": "WebGL",
            "version": "1.0.2"
        },
        "version": "1.0"
    },
    "bufferViews": {
        "bufferView_69": {
            "buffer": "hierarchical_anim",
            "byteLength": 72,
            "byteOffset": 0
        },
        "bufferView_70": {
            "buffer": "hierarchical_anim",
            "byteLength": 4668,
            "byteOffset": 72,
            "target": 34963
        },
        "bufferView_71": {
            "buffer": "hierarchical_anim",
            "byteLength": 10128,
            "byteOffset": 4740,
            "target": 34962
        }
    },
    "buffers": {
        "hierarchical_anim": {
            "byteLength": 14868,
            "type": "arraybuffer",
            "uri": "hierarchical_anim.bin"
        }
    },
    "materials": {
        "lambert1-fx": {
            "name": "lambert1",
            "technique": "technique1",
            "values": {
                "ambient": [
                    0,
                    0,
                    0,
                    1
                ],
                "diffuse": [
                    0.4,
                    0.4,
                    0.4,
                    1
                ],
                "emission": [
                    0,
                    0,
                    0,
                    1
                ],
                "transparency": 0
            }
        }
    },
    "meshes": {
        "pCubeShape1": {
            "name": "pCubeShape1",
            "primitives": [
                {
                    "attributes": {
                        "NORMAL": "accessor_20",
                        "POSITION": "accessor_18"
                    },
                    "indices": "accessor_16",
                    "material": "lambert1-fx",
                    "mode": 4
                }
            ]
        },
        "pPyramidShape1": {
            "name": "pPyramidShape1",
            "primitives": [
                {
                    "attributes": {
                        "NORMAL": "accessor_60",
                        "POSITION": "accessor_58"
                    },
                    "indices": "accessor_56",
                    "material": "lambert1-fx",
                    "mode": 4
                }
            ]
        },
        "pSphereShape1": {
            "name": "pSphereShape1",
            "primitives": [
                {
                    "attributes": {
                        "NORMAL": "accessor_40",
                        "POSITION": "accessor_38"
                    },
                    "indices": "accessor_36",
                    "material": "lambert1-fx",
                    "mode": 4
                }
            ]
        }
    },
    "nodes": {
        "_pCube1": {
            "children": [
                "_pCube1_pSphere1"
            ],
            "meshes": [
                "pCubeShape1"
            ],
            "name": "pCube1",
            "rotation": [
                0,
                0,
                0,
                1
            ],
            "scale": [
                1,
                1,
                1
            ],
            "translation": [
                0,
                0,
                0
            ]
        },
        "_pCube1_pSphere1": {
            "children": [
                "_pCube1_pSphere1_pPyramid1"
            ],
            "meshes": [
                "pSphereShape1"
            ],
            "name": "pSphere1",
            "rotation": [
                0,
                0,
                0,
                1
            ],
            "scale": [
                1,
                1,
                1
            ],
            "translation": [
                10.0455,
                0,
                0
            ]
        },
        "_pCube1_pSphere1_pPyramid1": {
            "children": [],
            "matrix": [
                1,
                0,
                0,
                0,
                0,
                1,
                0,
                0,
                0,
                0,
                1,
                0,
                -2.73969,
                0,
                0,
                1
            ],
            "meshes": [
                "pPyramidShape1"
            ],
            "name": "pPyramid1"
        }
    },
    "programs": {
        "program_0": {
            "attributes": [
                "a_normal",
                "a_position"
            ],
            "fragmentShader": "hierarchical_anim0FS",
            "vertexShader": "hierarchical_anim0VS"
        }
    },
    "scene": "defaultScene",
    "scenes": {
        "defaultScene": {
            "nodes": [
                "_pCube1"
            ]
        }
    },
    "shaders": {
        "hierarchical_anim0FS": {
            "type": 35632,
            "uri": "hierarchical_anim0FS.glsl"
        },
        "hierarchical_anim0VS": {
            "type": 35633,
            "uri": "hierarchical_anim0VS.glsl"
        }
    },
    "skins": {},
    "techniques": {
        "technique1": {
            "attributes": {
                "a_normal": "normal",
                "a_position": "position"
            },
            "parameters": {
                "ambient": {
                    "type": 35666
                },
                "diffuse": {
                    "type": 35666
                },
                "emission": {
                    "type": 35666
                },
                "modelViewMatrix": {
                    "semantic": "MODELVIEW",
                    "type": 35676
                },
                "normal": {
                    "semantic": "NORMAL",
                    "type": 35665
                },
                "normalMatrix": {
                    "semantic": "MODELVIEWINVERSETRANSPOSE",
                    "type": 35675
                },
                "position": {
                    "semantic": "POSITION",
                    "type": 35665
                },
                "projectionMatrix": {
                    "semantic": "PROJECTION",
                    "type": 35676
                },
                "transparency": {
                    "type": 5126
                }
            },
            "program": "program_0",
            "states": {
                "enable": [
                    2929,
                    3042
                ],
                "functions": {
                    "blendEquationSeparate": [
                        32774,
                        32774
                    ],
                    "blendFuncSeparate": [
                        1,
                        771,
                        1,
                        771
                    ],
                    "depthMask": false
                }
            },
            "uniforms": {
                "u_ambient": "ambient",
                "u_diffuse": "diffuse",
                "u_emission": "emission",
                "u_modelViewMatrix": "modelViewMatrix",
                "u_normalMatrix": "normalMatrix",
                "u_projectionMatrix": "projectionMatrix",
                "u_transparency": "transparency"
            }
        }
    }
}