# This file uses centimeters as units for non-parametric coordinates.

mtllib teapot.mtl
g default
v -0.866025 3.039974 -0.500000
v 0.000000 3.039974 -1.000000
v -0.000000 3.303308 -0.000000
v 0.866025 3.039974 -0.500000
v -0.866026 3.039974 0.500000
v -0.000000 3.039974 1.000000
v 0.866025 3.039974 0.500000
v -0.000000 2.734357 -0.000000
v -0.078251 3.235577 0.078251
v 0.078251 3.235577 0.078251
v 0.078251 3.235577 -0.078251
v -0.078251 3.235577 -0.078251
v -0.090737 3.423137 0.090737
v 0.090737 3.423137 0.090737
v 0.090737 3.423137 -0.090737
v -0.090737 3.423137 -0.090737
v -0.145287 3.575347 0.145287
v 0.145287 3.575347 0.145287
v 0.145287 3.575347 -0.145287
v -0.145287 3.575347 -0.145287
v -0.000000 3.688234 -0.000000
v -0.798567 0.000000 -0.461053
v -0.798567 0.000000 0.461053
v -0.000000 0.000000 0.922106
v 0.798567 0.000000 0.461053
v 0.798567 0.000000 -0.461053
v -0.000000 0.000000 -0.922106
v -0.866025 3.001423 -0.500000
v -0.866026 3.001423 0.500000
v -0.000000 3.001423 1.000000
v 0.866025 3.001423 0.500000
v 0.866025 3.001423 -0.500000
v 0.000000 3.001423 -1.000000
v 0.961124 0.217391 0.554905
v -0.000000 0.217391 1.109811
v -0.961124 0.217391 0.554905
v -0.961124 0.217391 -0.554906
v 0.000000 0.217391 -1.109811
v 0.961124 0.217391 -0.554905
v 0.588565 2.771740 0.339808
v -0.000000 2.771740 0.679617
v -0.588565 2.771740 0.339808
v -0.588565 2.771740 -0.339809
v -0.000000 2.771740 -0.679617
v 0.588565 2.771740 -0.339808
v 0.588565 2.563406 0.339808
v -0.000000 2.563406 0.679617
v -0.588565 2.563406 0.339808
v -0.588565 2.563406 -0.339809
v -0.000000 2.563406 -0.679617
v 0.588565 2.563406 -0.339808
v 0.866025 2.327899 0.500000
v -0.000000 2.327899 1.000000
v -0.866026 2.327899 0.500000
v -0.866025 2.327899 -0.500000
v 0.000000 2.327899 -1.000000
v 0.866025 2.327899 -0.500000
v 0.929139 0.449868 -0.205303
v 0.928812 0.571677 -0.081019
v 0.929139 0.449868 0.043265
v 0.929139 0.327802 -0.081019
v 1.321721 0.644278 -0.205303
v 1.260531 0.740492 -0.081019
v 1.321721 0.644278 0.043265
v 1.382916 0.536475 -0.081019
v 1.731900 1.118182 -0.205303
v 1.614214 1.160229 -0.081019
v 1.731900 1.118182 0.043265
v 1.848561 1.075332 -0.081019
v 1.812498 1.953338 -0.205303
v 1.687584 1.883538 -0.081019
v 1.812498 1.953338 0.043265
v 1.940681 2.034106 -0.081019
v 1.322376 2.272607 -0.205303
v 1.288785 2.126189 -0.081019
v 1.322376 2.272607 0.043265
v 1.343941 2.434784 -0.081019
v 0.844105 2.064336 -0.205303
v 0.844105 1.942270 -0.081019
v 0.844105 2.064336 0.043265
v 0.844105 2.186402 -0.081019
v -1.743221 2.326637 -0.000000
v -1.638611 2.406347 0.131517
v -1.534003 2.486057 0.000000
v -1.638611 2.406347 -0.131517
v -2.073058 2.603111 -0.000000
v -1.969041 2.639887 0.110327
v -1.865024 2.676664 0.000000
v -1.969041 2.639887 -0.110327
v -1.338246 1.969630 -0.180254
v -1.502094 1.894495 -0.000000
v -1.174398 2.044766 0.000000
v -1.338246 1.969630 0.180254
v -0.713019 1.561052 -0.000000
v -0.876866 1.485916 -0.255695
v -0.876866 1.485916 0.255695
v -1.176850 1.196510 -0.180254
v -1.439737 1.092030 -0.000000
v -1.176850 1.196510 0.180254
v -0.923753 0.751692 -0.180254
v -1.271005 0.482148 -0.000000
v -0.923753 0.751692 0.180254
v -0.789867 0.616190 -0.180254
v -0.950049 0.206825 -0.000000
v -0.789867 0.616190 0.180254
vt 0.791184 0.759072
vt 0.766188 0.759072
vt 0.767908 0.733237
vt 0.789464 0.733237
vt 0.798698 0.780037
vt 0.758674 0.780037
vt 0.778686 0.795586
vt 0.837431 0.759072
vt 0.812435 0.759072
vt 0.814155 0.733237
vt 0.835711 0.733237
vt 0.844945 0.780037
vt 0.804921 0.780037
vt 0.824933 0.795586
vt 0.134276 0.031936
vt 0.266661 0.031936
vt 0.253562 0.322637
vt 0.134276 0.322637
vt 0.134276 0.001992
vt 0.244271 0.001992
vt 0.215345 0.355076
vt 0.134276 0.355076
vt 0.001891 0.031936
vt 0.014990 0.322637
vt 0.024281 0.001992
vt 0.215345 0.383772
vt 0.134276 0.383772
vt 0.053207 0.355076
vt 0.134276 0.415408
vt 0.253562 0.415408
vt 0.053207 0.383772
vt 0.014990 0.415408
vt 0.406393 0.031936
vt 0.538778 0.031936
vt 0.525679 0.322637
vt 0.406393 0.322637
vt 0.406393 0.001992
vt 0.516387 0.001992
vt 0.487462 0.355076
vt 0.406393 0.355076
vt 0.274007 0.031936
vt 0.287106 0.322637
vt 0.296398 0.001992
vt 0.487462 0.383772
vt 0.406393 0.383772
vt 0.325323 0.355076
vt 0.525679 0.415408
vt 0.406393 0.415408
vt 0.325323 0.383772
vt 0.287106 0.415408
vt 0.666884 0.511181
vt 0.630674 0.525572
vt 0.595812 0.464303
vt 0.643642 0.427176
vt 0.652904 0.632062
vt 0.675473 0.621713
vt 0.589354 0.565435
vt 0.577370 0.445639
vt 0.599434 0.389253
vt 0.708685 0.681236
vt 0.694277 0.692215
vt 0.630336 0.642411
vt 0.566785 0.575785
vt 0.754117 0.719318
vt 0.739790 0.724383
vt 0.679868 0.703195
vt 0.725463 0.729449
vt 0.883384 0.525572
vt 0.847174 0.511181
vt 0.870415 0.427176
vt 0.918246 0.464303
vt 0.838585 0.621713
vt 0.861154 0.632062
vt 0.914624 0.389253
vt 0.936687 0.445639
vt 0.924704 0.565435
vt 0.819781 0.692215
vt 0.805372 0.681236
vt 0.947272 0.575785
vt 0.883722 0.642411
vt 0.774268 0.724383
vt 0.759941 0.719318
vt 0.834190 0.703195
vt 0.788595 0.729449
vt 0.404096 0.488067
vt 0.284810 0.556937
vt 0.284810 0.419197
vt 0.404096 0.625807
vt 0.165523 0.488067
vt 0.284810 0.694677
vt 0.165523 0.625807
vt 0.001891 0.767335
vt 0.121177 0.698465
vt 0.121177 0.836205
vt 0.240464 0.767335
vt 0.001891 0.905075
vt 0.240464 0.905075
vt 0.121177 0.973945
vt 0.891238 0.771264
vt 0.912795 0.771264
vt 0.912795 0.792820
vt 0.891238 0.792820
vt 0.595865 0.755628
vt 0.659370 0.865623
vt 0.595865 0.975617
vt 0.468854 0.975617
vt 0.405348 0.865623
vt 0.468854 0.755628
vt 0.608792 0.998008
vt 0.455926 0.998008
vt 0.455927 0.733237
vt 0.608792 0.733237
vt 0.947273 0.786460
vt 0.932945 0.801657
vt 0.918618 0.786460
vt 0.932945 0.771264
vt 0.698690 0.769752
vt 0.696971 0.795586
vt 0.675414 0.795586
vt 0.673694 0.769752
vt 0.666181 0.748786
vt 0.706204 0.748786
vt 0.686192 0.733237
vt 0.719941 0.759072
vt 0.721661 0.733237
vt 0.743217 0.733237
vt 0.744937 0.759072
vt 0.752451 0.780037
vt 0.712427 0.780037
vt 0.732439 0.795586
vt 0.698804 0.385465
vt 0.545939 0.385465
vt 0.553501 0.094763
vt 0.691241 0.094763
vt 0.575566 0.062324
vt 0.669177 0.062324
vt 0.575566 0.033629
vt 0.669177 0.033629
vt 0.553501 0.001992
vt 0.691241 0.001992
vt 0.705028 0.001992
vt 0.857893 0.001992
vt 0.850331 0.292693
vt 0.712591 0.292693
vt 0.828266 0.325132
vt 0.734655 0.325132
vt 0.828266 0.353828
vt 0.734655 0.353828
vt 0.850331 0.385465
vt 0.712591 0.385465
vt 0.867946 0.733237
vt 0.884759 0.750356
vt 0.867946 0.767475
vt 0.851168 0.750356
vt 0.908678 0.733237
vt 0.925492 0.750356
vt 0.908678 0.767475
vt 0.891865 0.750356
vt 0.549249 0.436010
vt 0.549294 0.452788
vt 0.503603 0.476041
vt 0.495175 0.462788
vt 0.549249 0.436010
vt 0.495175 0.462788
vt 0.454887 0.533855
vt 0.438677 0.528064
vt 0.549249 0.419197
vt 0.486746 0.447939
vt 0.444781 0.633484
vt 0.427575 0.643098
vt 0.422608 0.522161
vt 0.499712 0.666907
vt 0.495085 0.687074
vt 0.409920 0.654223
vt 0.560962 0.641574
vt 0.560962 0.658387
vt 0.492115 0.709412
vt 0.560962 0.675200
vt 0.427575 0.643098
vt 0.495085 0.687074
vt 0.560962 0.658387
vt 0.259822 0.715279
vt 0.259822 0.698465
vt 0.322325 0.727208
vt 0.313896 0.742057
vt 0.386463 0.801430
vt 0.370394 0.807332
vt 0.399152 0.933492
vt 0.381496 0.922367
vt 0.305468 0.755309
vt 0.354184 0.813124
vt 0.364290 0.912752
vt 0.313986 0.966343
vt 0.309359 0.946175
vt 0.248109 0.937656
vt 0.248109 0.920842
vn -0.145460 0.956747 -0.251945
vn -0.145460 0.956747 -0.251945
vn -0.145460 0.956747 -0.251945
vn 0.145460 0.956747 -0.251945
vn 0.145460 0.956747 -0.251945
vn 0.145460 0.956747 -0.251945
vn -0.290920 0.956747 -0.000000
vn -0.290920 0.956747 -0.000000
vn -0.290920 0.956747 -0.000000
vn -0.145460 0.956747 0.251945
vn -0.145460 0.956747 0.251945
vn -0.145460 0.956747 0.251945
vn 0.145460 0.956747 0.251945
vn 0.145460 0.956747 0.251945
vn 0.145460 0.956747 0.251945
vn 0.290920 0.956747 0.000000
vn 0.290920 0.956748 0.000000
vn 0.290920 0.956747 0.000000
vn -0.166391 -0.943004 -0.288198
vn -0.166391 -0.943004 -0.288198
vn -0.166391 -0.943004 -0.288198
vn 0.166391 -0.943004 -0.288198
vn 0.166391 -0.943004 -0.288198
vn 0.166391 -0.943004 -0.288198
vn -0.332783 -0.943003 -0.000000
vn -0.332783 -0.943003 -0.000000
vn -0.332783 -0.943003 -0.000000
vn -0.166391 -0.943004 0.288198
vn -0.166391 -0.943004 0.288198
vn -0.166391 -0.943004 0.288198
vn 0.166391 -0.943004 0.288198
vn 0.166391 -0.943004 0.288198
vn 0.166391 -0.943004 0.288198
vn 0.332783 -0.943003 0.000000
vn 0.332783 -0.943003 0.000000
vn 0.332783 -0.943003 0.000000
vn 0.000006 -1.000000 0.000000
vn 0.000003 -1.000000 0.000000
vn 0.000003 -1.000000 0.000000
vn 0.000000 -1.000000 0.000000
vn -0.972623 -0.232390 -0.000000
vn -0.997791 -0.066425 -0.000000
vn -0.976910 -0.213653 -0.000000
vn -0.997791 -0.066425 -0.000000
vn 0.972623 -0.232390 0.000000
vn 0.997791 -0.066425 0.000000
vn 0.976910 -0.213653 0.000000
vn 0.997791 -0.066425 0.000000
vn -0.000001 -0.209376 0.977835
vn -0.000000 -0.236439 0.971646
vn -0.000000 -0.066425 0.997792
vn -0.000000 -0.066425 0.997792
vn 0.000000 -0.209376 -0.977835
vn 0.000000 -0.236439 -0.971646
vn 0.000000 -0.066425 -0.997792
vn 0.000000 -0.066425 -0.997792
vn 0.613555 0.789652 0.000000
vn 0.613555 0.789652 0.000000
vn 0.613555 0.789652 0.000000
vn -0.000000 -0.337369 0.941372
vn -0.000000 -0.337369 0.941372
vn 0.941372 -0.337369 0.000000
vn 0.941372 -0.337370 0.000000
vn 0.000000 -0.337369 -0.941372
vn 0.000001 -0.337369 -0.941372
vn -0.941372 -0.337369 -0.000000
vn -0.941372 -0.337370 -0.000000
vn -0.613555 0.789652 -0.000000
vn -0.613555 0.789652 -0.000000
vn -0.613555 0.789652 -0.000000
vn 0.000000 0.789652 -0.613554
vn 0.000000 0.789652 -0.613554
vn 0.000000 0.789652 -0.613554
vn -0.000001 0.789652 0.613554
vn -0.000001 0.789652 0.613554
vn -0.000001 0.789652 0.613554
vn -0.800860 -0.598852 -0.000000
vn -0.800860 -0.598852 -0.000000
vn -0.999969 -0.007862 -0.000000
vn -0.999856 -0.016994 -0.000000
vn -0.400430 -0.598852 0.693565
vn -0.400430 -0.598852 0.693565
vn -0.499985 -0.007862 0.865999
vn -0.499928 -0.016994 0.865900
vn 0.400430 -0.598852 0.693565
vn 0.400430 -0.598852 0.693565
vn 0.499984 -0.007862 0.865999
vn 0.499928 -0.016994 0.865900
vn 0.800860 -0.598852 0.000000
vn 0.800860 -0.598852 0.000000
vn 0.999969 -0.007862 0.000000
vn 0.999856 -0.016994 0.000000
vn 0.400430 -0.598852 -0.693565
vn 0.400430 -0.598852 -0.693565
vn 0.499985 -0.007862 -0.865999
vn 0.499928 -0.016994 -0.865900
vn -0.400430 -0.598852 -0.693565
vn -0.400430 -0.598852 -0.693565
vn -0.499984 -0.007862 -0.865999
vn -0.499928 -0.016994 -0.865900
vn 0.000000 -1.000000 0.000000
vn 0.000000 -1.000000 0.000000
vn 0.000000 -1.000000 0.000000
vn 0.000000 -1.000000 0.000000
vn 0.000000 -1.000000 0.000000
vn 0.000000 -1.000000 0.000000
vn 0.496003 0.126190 0.859103
vn 0.496822 0.112560 0.860522
vn -0.496003 0.126190 0.859102
vn -0.496823 0.112560 0.860522
vn -0.992006 0.126190 -0.000000
vn -0.993645 0.112560 -0.000000
vn -0.496003 0.126190 -0.859103
vn -0.496822 0.112560 -0.860522
vn 0.496003 0.126190 -0.859102
vn 0.496823 0.112560 -0.860522
vn 0.992006 0.126190 0.000000
vn 0.993645 0.112560 0.000000
vn 0.394134 0.615332 0.682660
vn 0.410948 0.569636 0.711784
vn -0.394134 0.615332 0.682660
vn -0.410948 0.569636 0.711784
vn -0.788268 0.615332 -0.000000
vn -0.821897 0.569636 -0.000000
vn -0.394134 0.615332 -0.682660
vn -0.410948 0.569636 -0.711784
vn 0.394134 0.615332 -0.682660
vn 0.410949 0.569636 -0.711783
vn 0.788268 0.615332 0.000000
vn 0.821897 0.569636 0.000000
vn -0.391510 -0.621996 -0.678116
vn -0.408870 -0.575586 -0.708185
vn -0.783021 -0.621996 -0.000000
vn -0.817742 -0.575586 -0.000000
vn -0.391510 -0.621996 0.678116
vn -0.408871 -0.575586 0.708185
vn -0.318833 -0.770312 0.552236
vn -0.318833 -0.770312 0.552236
vn -0.637668 -0.770311 -0.000000
vn -0.637668 -0.770311 -0.000000
vn 0.408870 -0.575586 -0.708185
vn 0.318833 -0.770312 -0.552236
vn 0.391510 -0.621996 -0.678116
vn 0.318833 -0.770312 -0.552236
vn -0.318833 -0.770312 -0.552236
vn -0.318834 -0.770312 -0.552236
vn 0.817741 -0.575586 0.000000
vn 0.637667 -0.770312 0.000000
vn 0.783021 -0.621996 0.000000
vn 0.637668 -0.770311 0.000000
vn 0.391510 -0.621996 0.678116
vn 0.408870 -0.575586 0.708185
vn 0.318834 -0.770312 0.552236
vn 0.318834 -0.770312 0.552236
vn -0.333237 0.672923 -0.660400
vn -0.333574 0.670056 -0.663139
vn -0.473542 0.566605 -0.674327
vn -0.486969 0.558130 -0.671828
vn -0.333237 0.672923 0.660400
vn -0.473542 0.566605 0.674326
vn -0.333574 0.670056 0.663139
vn -0.486969 0.558130 0.671827
vn 0.311735 -0.677892 0.665796
vn 0.449721 -0.558529 0.696991
vn 0.312324 -0.670066 0.673399
vn 0.463171 -0.543851 0.699785
vn 0.311735 -0.677892 -0.665796
vn 0.312324 -0.670066 -0.673398
vn 0.449721 -0.558530 -0.696990
vn 0.463171 -0.543851 -0.699785
vn -0.654751 0.266907 -0.707150
vn -0.658607 0.255235 -0.707879
vn -0.654752 0.266907 0.707150
vn -0.658607 0.255235 0.707879
vn 0.656136 -0.263796 0.707034
vn 0.660215 -0.253601 0.706967
vn 0.656136 -0.263796 -0.707034
vn 0.660215 -0.253601 -0.706968
vn -0.623319 -0.210898 -0.752991
vn -0.616978 -0.233840 -0.751436
vn -0.623319 -0.210898 0.752991
vn -0.616979 -0.233840 0.751436
vn 0.623397 0.180948 0.760680
vn 0.598855 0.224082 0.768870
vn 0.623397 0.180948 -0.760680
vn 0.598854 0.224081 -0.768870
vn -0.067842 -0.643177 -0.762707
vn -0.010081 -0.648372 -0.761257
vn -0.067842 -0.643177 0.762707
vn -0.010081 -0.648372 0.761257
vn 0.076311 0.607527 0.790625
vn 0.097916 0.597114 0.796158
vn 0.076311 0.607527 -0.790625
vn 0.097916 0.597114 -0.796158
vn 0.283778 -0.678312 -0.677763
vn 0.283015 -0.684275 -0.672064
vn 0.283778 -0.678312 0.677763
vn 0.283015 -0.684275 0.672064
vn -0.297856 0.664687 0.685180
vn -0.296692 0.681320 0.669162
vn -0.297856 0.664687 -0.685180
vn -0.296692 0.681320 -0.669162
vn -0.999998 -0.001339 -0.001315
vn -0.999999 -0.001339 0.000000
vn -0.999999 -0.001339 0.000000
vn -0.999998 -0.001339 0.001315
vn -1.000000 -0.000002 0.000000
vn -1.000000 -0.000002 -0.000000
vn -1.000000 -0.000002 -0.000000
vn -1.000000 -0.000002 -0.000000
vn -0.560356 -0.430348 0.707674
vn -0.475948 -0.576905 0.663817
vn -0.551141 -0.449148 0.703214
vn -0.486781 -0.580737 0.652525
vn 0.491604 0.518380 0.699720
vn 0.409985 0.653143 0.636644
vn 0.479374 0.534922 0.695743
vn 0.425581 0.658463 0.620731
vn 0.491603 0.518380 -0.699720
vn 0.479375 0.534922 -0.695743
vn 0.409986 0.653143 -0.636644
vn 0.425582 0.658463 -0.620731
vn -0.560356 -0.430348 -0.707674
vn -0.551142 -0.449147 -0.703214
vn -0.475948 -0.576906 -0.663817
vn -0.486780 -0.580738 -0.652525
vn -0.333339 0.942807 -0.000000
vn -0.333341 0.942806 -0.000000
vn -0.333341 0.942806 -0.000000
vn -0.333344 0.942805 -0.000000
vn -0.618313 -0.346204 -0.705572
vn -0.617887 -0.346188 -0.705953
vn 0.555047 0.453737 -0.697170
vn 0.557001 0.453897 -0.695506
vn 0.555047 0.453737 0.697170
vn 0.557001 0.453896 0.695505
vn -0.618313 -0.346204 0.705572
vn -0.617887 -0.346188 0.705953
vn 0.602130 0.574328 -0.554605
vn 0.579836 0.573486 -0.578708
vn 0.518302 0.568328 -0.639036
vn 0.480801 0.563390 -0.671880
vn 0.480800 0.563390 0.671880
vn 0.579836 0.573486 0.578708
vn 0.518302 0.568328 0.639036
vn 0.602131 0.574327 0.554605
vn -0.700895 -0.146318 -0.698095
vn -0.537919 -0.143493 -0.830694
vn -0.662415 -0.117605 -0.739848
vn -0.489822 -0.112097 -0.864586
vn -0.489822 -0.112097 0.864586
vn -0.537919 -0.143493 0.830694
vn -0.662415 -0.117605 0.739848
vn -0.700896 -0.146318 0.698095
vn -0.374238 -0.177237 -0.910238
vn -0.340916 -0.185159 -0.921679
vn -0.374238 -0.177237 0.910238
vn -0.340916 -0.185159 0.921679
vn -0.263974 -0.289661 -0.920008
vn -0.259386 -0.302378 -0.917217
vn -0.263974 -0.289661 0.920008
vn -0.259386 -0.302378 0.917217
vn -0.204699 -0.042733 0.977892
vn -0.179173 -0.070085 0.981318
vn -0.193116 -0.055190 0.979623
vn -0.159600 -0.090811 0.982996
vn -0.204699 -0.042733 -0.977892
vn -0.193116 -0.055190 -0.979623
vn -0.179173 -0.070085 -0.981318
vn -0.159600 -0.090811 -0.982996
s off
g teapot_top_top
usemtl initialShadingGroup
f 1/85/1 3/86/2 2/87/3
f 3/86/4 4/89/5 2/87/6
f 5/88/7 3/86/8 1/85/9
f 3/86/10 5/88/11 6/90/12
f 7/91/13 3/86/14 6/90/15
f 4/89/16 3/86/17 7/91/18
f 1/92/19 2/93/20 8/94/21
f 8/94/22 2/93/23 4/95/24
f 5/96/25 1/92/26 8/94/27
f 8/94/28 6/98/29 5/96/30
f 7/97/31 6/98/32 8/94/33
f 4/95/34 7/97/35 8/94/36
s 1
f 9/99/37 12/100/38 10/102/39
f 10/102/39 12/100/38 11/101/40
s 2
f 16/117/41 12/118/42 13/120/43
f 13/120/43 12/118/42 9/119/44
s 3
f 14/124/45 10/125/46 15/127/47
f 15/127/47 10/125/46 11/126/48
s 4
f 14/1/49 13/2/50 10/4/51
f 10/4/51 13/2/50 9/3/52
s 5
f 16/8/53 15/9/54 12/11/55
f 12/11/55 15/9/54 11/10/56
s off
f 21/130/57 18/129/58 19/128/59
s 4
f 14/1/49 18/5/60 13/2/50
f 13/2/50 18/5/60 17/6/61
s 3
f 15/127/47 19/128/62 14/124/45
f 14/124/45 19/128/62 18/129/63
s 5
f 16/8/53 20/12/64 15/9/54
f 15/9/54 20/12/64 19/13/65
s 2
f 13/120/43 17/121/66 16/117/41
f 16/117/41 17/121/66 20/122/67
s off
f 21/123/68 20/122/69 17/121/70
f 20/12/71 21/14/72 19/13/73
f 18/5/74 21/7/75 17/6/76
s 6
f 22/103/77 23/108/78 37/112/79
f 37/112/79 23/108/78 36/111/80
s 7
f 23/25/81 24/19/82 36/23/83
f 36/23/83 24/19/82 35/15/84
s 8
f 24/19/85 25/20/86 35/15/87
f 35/15/87 25/20/86 34/16/88
s 9
f 25/106/89 26/105/90 34/110/91
f 34/110/91 26/105/90 39/109/92
s 10
f 26/43/93 27/37/94 39/41/95
f 39/41/95 27/37/94 38/33/96
s 11
f 27/37/97 22/38/98 38/33/99
f 38/33/99 22/38/98 37/34/100
s 12
f 22/103/101 27/104/102 23/108/103
f 27/104/102 26/105/104 23/108/103
f 26/105/104 25/106/105 23/108/103
f 25/106/105 24/107/106 23/108/103
s 8
f 35/15/87 34/16/88 53/18/107
f 53/18/107 34/16/88 52/17/108
s 7
f 36/23/83 35/15/84 54/24/109
f 54/24/109 35/15/84 53/18/110
s 6
f 37/131/79 36/132/80 55/134/111
f 55/134/111 36/132/80 54/133/112
s 11
f 38/33/99 37/34/100 56/36/113
f 56/36/113 37/34/100 55/35/114
s 10
f 39/41/95 38/33/96 57/42/115
f 57/42/115 38/33/96 56/36/116
s 9
f 34/141/91 39/142/92 52/144/117
f 52/144/117 39/142/92 57/143/118
s 8
f 53/18/107 52/17/108 47/22/119
f 47/22/119 52/17/108 46/21/120
s 7
f 54/24/109 53/18/110 48/28/121
f 48/28/121 53/18/110 47/22/122
s 6
f 55/134/111 54/133/112 49/136/123
f 49/136/123 54/133/112 48/135/124
s 11
f 56/36/113 55/35/114 50/40/125
f 50/40/125 55/35/114 49/39/126
s 10
f 57/42/115 56/36/116 51/46/127
f 51/46/127 56/36/116 50/40/128
s 9
f 52/144/117 57/143/118 46/146/129
f 46/146/129 57/143/118 51/145/130
s 11
f 43/44/131 44/45/132 49/39/126
f 49/39/126 44/45/132 50/40/125
s 6
f 48/135/124 42/137/133 49/136/123
f 49/136/123 42/137/133 43/138/134
s 7
f 47/22/122 41/27/135 48/28/121
f 48/28/121 41/27/135 42/31/136
f 42/31/136 41/27/135 29/32/137
f 29/32/137 41/27/135 30/29/138
s 6
f 43/138/134 42/137/133 28/140/139
f 28/140/139 42/137/133 29/139/140
s 10
f 44/45/141 33/48/142 45/49/143
f 45/49/143 33/48/142 32/50/144
f 50/40/128 44/45/141 51/46/127
f 51/46/127 44/45/141 45/49/143
s 11
f 44/45/132 43/44/131 33/48/145
f 33/48/145 43/44/131 28/47/146
s 9
f 45/147/147 32/149/148 40/148/149
f 40/148/149 32/149/148 31/150/150
f 51/145/130 45/147/147 46/146/129
f 46/146/129 45/147/147 40/148/149
s 8
f 47/22/119 46/21/120 41/27/151
f 41/27/151 46/21/120 40/26/152
f 30/29/153 41/27/151 31/30/154
f 31/30/154 41/27/151 40/26/152
s 16
f 58/159/155 59/160/156 62/162/157
f 62/162/157 59/160/156 63/161/158
s 17
f 60/163/159 64/164/160 59/160/161
f 59/160/161 64/164/160 63/161/162
s 18
f 61/183/163 65/184/164 60/182/165
f 60/182/165 65/184/164 64/185/166
s 19
f 61/167/167 58/159/168 65/168/169
f 65/168/169 58/159/168 62/162/170
s 16
f 63/161/158 67/165/171 62/162/157
f 62/162/157 67/165/171 66/166/172
s 17
f 63/190/162 64/185/160 67/191/173
f 67/191/173 64/185/160 68/187/174
s 18
f 64/185/166 65/184/164 68/187/175
f 68/187/175 65/184/164 69/186/176
s 19
f 62/162/170 66/166/177 65/168/169
f 65/168/169 66/166/177 69/171/178
s 16
f 67/165/171 71/169/179 66/166/172
f 66/166/172 71/169/179 70/170/180
s 17
f 67/191/173 68/187/174 71/192/181
f 71/192/181 68/187/174 72/189/182
s 18
f 68/187/175 69/186/176 72/189/183
f 72/189/183 69/186/176 73/188/184
s 19
f 66/166/177 70/170/185 69/171/178
f 69/171/178 70/170/185 73/174/186
s 16
f 70/170/180 71/169/179 74/173/187
f 74/173/187 71/169/179 75/172/188
s 17
f 72/189/182 76/193/189 71/192/181
f 71/192/181 76/193/189 75/194/190
s 18
f 72/179/183 73/174/184 76/180/191
f 76/180/191 73/174/184 77/177/192
s 19
f 70/170/185 74/173/193 73/174/186
f 73/174/186 74/173/193 77/177/194
s 16
f 74/173/187 75/172/188 78/176/195
f 78/176/195 75/172/188 79/175/196
s 17
f 76/193/189 80/195/197 75/194/190
f 75/194/190 80/195/197 79/196/198
s 18
f 77/177/192 81/178/199 76/180/191
f 76/180/191 81/178/199 80/181/200
s 19
f 77/177/194 74/173/193 81/178/201
f 81/178/201 74/173/193 78/176/202
s 20
f 58/151/203 61/152/204 59/154/205
f 59/154/205 61/152/204 60/153/206
s 21
f 78/155/207 79/156/208 81/158/209
f 81/158/209 79/156/208 80/157/210
s 22
f 83/77/211 87/81/212 82/78/213
f 82/78/213 87/81/212 86/82/214
s 23
f 84/83/215 88/84/216 83/77/217
f 83/77/217 88/84/216 87/81/218
s 24
f 84/66/219 85/61/220 88/67/221
f 88/67/221 85/61/220 89/65/222
s 25
f 85/61/223 82/60/224 89/65/225
f 89/65/225 82/60/224 86/64/226
s 26
f 86/113/227 87/114/228 89/116/229
f 89/116/229 87/114/228 88/115/230
s 25
f 82/60/224 85/61/223 91/56/231
f 91/56/231 85/61/223 90/55/232
s 24
f 85/61/220 84/66/219 90/55/233
f 90/55/233 84/66/219 92/62/234
s 23
f 83/77/217 93/73/235 84/83/215
f 84/83/215 93/73/235 92/80/236
s 22
f 82/78/213 91/72/237 83/77/211
f 83/77/211 91/72/237 93/73/238
s 27
f 94/63/239 95/57/240 92/62/241
f 92/62/241 95/57/240 90/55/242
s 28
f 93/73/243 96/76/244 92/80/245
f 92/80/245 96/76/244 94/79/246
s 29
f 90/55/247 97/52/248 91/56/249
f 91/56/249 97/52/248 98/51/250
s 30
f 98/69/251 99/68/252 91/72/253
f 91/72/253 99/68/252 93/73/254
s 29
f 97/52/248 100/53/255 98/51/250
f 98/51/250 100/53/255 101/54/256
s 30
f 99/68/252 98/69/251 102/71/257
f 102/71/257 98/69/251 101/70/258
s 29
f 100/53/255 103/58/259 101/54/256
f 101/54/256 103/58/259 104/59/260
s 30
f 102/71/257 101/70/258 105/75/261
f 105/75/261 101/70/258 104/74/262
s 31
f 93/73/263 99/68/264 96/76/265
f 96/76/265 99/68/264 102/71/266
s 32
f 90/55/267 95/57/268 97/52/269
f 97/52/269 95/57/268 100/53/270
